<svg id="svg" xmlns="http://www.w3.org/2000/svg" xmlns:xlink="http://www.w3.org/1999/xlink" width="400" height="400" viewBox="0, 0, 400,400"><g id="svgg"><path id="path0" d="M0.000 200.000 L 0.000 400.000 200.000 400.000 L 400.000 400.000 400.000 200.000 L 400.000 0.000 200.000 0.000 L 0.000 0.000 0.000 200.000 M204.638 85.800 C 205.231 86.350,205.961 86.800,206.258 86.800 C 206.556 86.800,206.800 86.940,206.800 87.112 C 206.800 87.284,208.105 88.532,209.700 89.885 C 211.295 91.238,215.459 95.148,218.952 98.573 C 222.446 101.998,225.449 104.800,225.625 104.800 C 225.802 104.800,226.060 105.160,226.200 105.600 C 226.340 106.040,226.640 106.400,226.866 106.400 C 227.323 106.400,229.600 108.714,229.600 109.178 C 229.600 109.340,230.050 109.677,230.600 109.927 C 231.150 110.178,231.600 110.657,231.600 110.991 C 231.600 111.326,231.874 111.600,232.209 111.600 C 232.543 111.600,233.022 112.050,233.273 112.600 C 233.523 113.150,233.887 113.600,234.080 113.600 C 234.565 113.600,240.400 119.512,240.400 120.003 C 240.400 120.221,240.596 120.400,240.836 120.400 C 241.371 120.400,247.600 126.672,247.600 127.212 C 247.600 127.425,247.786 127.600,248.014 127.600 C 248.242 127.600,250.045 129.220,252.022 131.200 C 253.998 133.180,255.791 134.800,256.007 134.800 C 256.223 134.800,256.400 134.980,256.400 135.200 C 256.400 135.692,264.301 143.600,264.793 143.600 C 264.987 143.600,265.257 143.951,265.394 144.380 C 265.530 144.808,265.992 145.270,266.420 145.406 C 266.849 145.543,267.200 145.900,267.200 146.200 C 267.200 146.500,267.551 146.857,267.980 146.994 C 268.408 147.130,268.870 147.592,269.006 148.020 C 269.143 148.449,269.500 148.800,269.800 148.800 C 270.100 148.800,270.457 149.151,270.594 149.580 C 270.730 150.008,271.183 150.467,271.600 150.600 C 272.017 150.733,272.467 151.183,272.600 151.600 C 272.733 152.017,273.192 152.470,273.620 152.606 C 274.049 152.743,274.400 153.100,274.400 153.400 C 274.400 153.700,274.760 154.060,275.200 154.200 C 275.640 154.340,276.000 154.604,276.000 154.787 C 276.000 155.236,278.787 158.000,279.240 158.000 C 279.438 158.000,279.600 158.287,279.600 158.637 C 279.600 158.988,279.954 159.367,280.387 159.481 C 280.819 159.594,281.279 160.018,281.407 160.423 C 281.536 160.828,281.992 161.270,282.420 161.406 C 282.849 161.543,283.200 161.900,283.200 162.200 C 283.200 162.500,283.551 162.857,283.980 162.994 C 284.408 163.130,284.870 163.592,285.006 164.020 C 285.143 164.449,285.500 164.800,285.800 164.800 C 286.100 164.800,286.457 165.151,286.594 165.580 C 286.730 166.008,287.183 166.467,287.600 166.600 C 288.017 166.733,288.467 167.183,288.600 167.600 C 288.733 168.017,289.192 168.470,289.620 168.606 C 290.049 168.743,290.400 169.100,290.400 169.400 C 290.400 169.700,290.751 170.057,291.180 170.194 C 291.608 170.330,292.070 170.792,292.206 171.220 C 292.343 171.649,292.700 172.000,293.000 172.000 C 293.300 172.000,293.660 172.360,293.800 172.800 C 293.940 173.240,294.316 173.600,294.637 173.600 C 294.957 173.600,295.391 174.050,295.600 174.600 C 295.809 175.150,296.243 175.600,296.563 175.600 C 296.884 175.600,297.257 175.951,297.394 176.380 C 297.530 176.808,297.992 177.270,298.420 177.406 C 298.849 177.543,299.200 177.808,299.200 177.996 C 299.200 178.460,301.411 180.642,302.180 180.937 C 302.521 181.068,302.800 181.438,302.800 181.760 C 302.800 182.083,303.151 182.457,303.580 182.594 C 304.008 182.730,304.467 183.183,304.600 183.600 C 304.733 184.017,305.192 184.470,305.620 184.606 C 306.049 184.743,306.400 185.100,306.400 185.400 C 306.400 185.700,306.760 186.060,307.200 186.200 C 307.640 186.340,308.000 186.604,308.000 186.787 C 308.000 187.236,310.787 190.000,311.240 190.000 C 311.438 190.000,311.600 190.287,311.600 190.637 C 311.600 190.988,311.954 191.367,312.387 191.481 C 312.819 191.594,313.279 192.018,313.407 192.423 C 313.536 192.828,313.992 193.270,314.420 193.406 C 314.849 193.543,315.200 193.846,315.200 194.081 C 315.200 194.316,315.605 194.924,316.100 195.432 C 317.973 197.354,318.341 197.833,318.841 199.000 C 319.124 199.660,319.624 200.522,319.954 200.916 C 320.498 201.567,320.436 201.748,319.269 202.916 L 317.985 204.200 303.316 204.314 C 287.166 204.441,287.333 204.414,287.829 206.778 C 287.993 207.560,288.190 229.592,288.267 255.738 L 288.406 303.277 287.403 304.469 C 286.851 305.125,286.400 305.911,286.400 306.217 C 286.400 306.522,286.026 306.972,285.570 307.216 C 285.113 307.461,284.403 307.997,283.992 308.408 C 283.581 308.819,282.560 309.273,281.722 309.417 C 280.885 309.561,279.312 309.931,278.227 310.239 C 274.431 311.318,229.894 311.041,228.047 309.927 C 225.958 308.666,224.076 306.650,223.763 305.337 C 223.614 304.712,223.233 303.901,222.915 303.534 C 222.018 302.500,222.143 237.912,223.047 235.750 C 224.155 233.098,221.077 227.600,218.485 227.600 C 218.160 227.600,217.312 227.240,216.599 226.799 C 215.887 226.359,214.425 225.894,213.352 225.765 C 212.278 225.636,210.689 225.263,209.819 224.936 C 207.543 224.080,196.162 224.100,193.400 224.965 C 192.300 225.310,190.950 225.594,190.400 225.597 C 187.909 225.612,182.432 229.256,181.129 231.767 C 180.329 233.309,180.316 233.890,180.350 267.367 C 180.387 302.741,180.331 304.095,178.756 305.815 C 175.090 309.822,176.890 309.595,148.797 309.598 C 124.365 309.600,122.571 309.503,121.159 308.111 C 120.763 307.720,120.205 307.177,119.919 306.904 C 118.010 305.080,117.499 304.329,117.168 302.856 C 116.963 301.942,116.456 300.856,116.042 300.442 C 115.388 299.788,115.254 298.787,115.017 292.745 C 114.647 283.336,114.917 206.766,115.323 205.952 C 116.242 204.107,115.366 204.000,99.271 203.998 C 84.037 203.996,82.077 203.838,80.402 202.482 C 79.547 201.790,79.546 201.776,80.309 200.792 C 80.732 200.246,81.198 199.310,81.344 198.712 C 81.490 198.113,81.967 197.432,82.405 197.197 C 82.842 196.963,83.200 196.599,83.200 196.389 C 83.200 195.905,92.637 186.400,93.117 186.400 C 93.312 186.400,93.677 185.950,93.927 185.400 C 94.178 184.850,94.657 184.400,94.991 184.400 C 95.326 184.400,95.600 184.126,95.600 183.790 C 95.600 183.455,96.050 183.009,96.600 182.800 C 97.150 182.591,97.600 182.157,97.600 181.837 C 97.600 181.516,97.960 181.140,98.400 181.000 C 98.840 180.860,99.200 180.484,99.200 180.163 C 99.200 179.843,99.650 179.409,100.200 179.200 C 100.750 178.991,101.200 178.545,101.200 178.210 C 101.200 177.874,101.366 177.600,101.570 177.600 C 101.773 177.600,105.979 173.595,110.915 168.700 C 115.852 163.805,124.010 155.792,129.045 150.894 C 134.080 145.996,140.769 139.471,143.908 136.394 C 147.048 133.317,149.793 130.800,150.008 130.800 C 150.224 130.800,150.400 130.629,150.400 130.419 C 150.400 129.969,153.182 127.200,153.634 127.200 C 153.806 127.200,154.060 126.840,154.200 126.400 C 154.340 125.960,154.608 125.600,154.796 125.600 C 155.242 125.600,157.600 123.242,157.600 122.796 C 157.600 122.608,157.960 122.340,158.400 122.200 C 158.841 122.060,159.387 121.598,159.614 121.173 C 159.842 120.748,160.271 120.400,160.567 120.400 C 160.864 120.400,161.204 120.027,161.324 119.570 C 161.443 119.114,161.914 118.643,162.370 118.524 C 162.827 118.404,163.200 118.140,163.200 117.936 C 163.200 117.388,167.384 113.200,167.931 113.200 C 168.189 113.200,168.400 112.913,168.400 112.563 C 168.400 112.212,168.754 111.833,169.187 111.719 C 169.619 111.606,170.079 111.182,170.207 110.777 C 170.336 110.372,170.792 109.930,171.220 109.794 C 171.649 109.657,172.000 109.271,172.000 108.936 C 172.000 108.600,172.354 108.233,172.787 108.119 C 173.219 108.006,173.682 107.573,173.814 107.157 C 173.946 106.741,174.329 106.400,174.664 106.400 C 175.000 106.400,175.367 106.046,175.481 105.613 C 175.594 105.181,176.018 104.721,176.423 104.593 C 176.828 104.464,177.270 104.008,177.406 103.580 C 177.543 103.151,177.821 102.800,178.024 102.800 C 178.228 102.800,181.190 100.010,184.606 96.600 C 188.023 93.190,190.985 90.400,191.189 90.400 C 191.393 90.400,191.705 90.142,191.881 89.827 C 192.255 89.159,194.606 87.396,195.884 86.826 C 196.370 86.609,197.135 86.065,197.584 85.616 C 198.869 84.331,203.174 84.444,204.638 85.800 M283.401 92.400 C 285.195 93.889,285.200 93.989,285.198 124.487 C 285.196 153.715,285.074 156.400,283.753 156.400 C 282.980 156.400,251.231 124.534,250.754 123.279 C 249.928 121.107,250.329 94.988,251.200 94.200 C 251.640 93.802,252.000 93.239,252.000 92.949 C 252.000 91.520,281.714 91.000,283.401 92.400 M114.693 204.996 C 115.290 205.206,114.934 206.402,114.068 207.100 C 112.834 208.094,83.551 207.791,82.254 206.771 C 81.183 205.929,80.876 204.975,81.598 204.733 C 82.180 204.538,114.111 204.792,114.693 204.996 M318.982 205.171 C 319.108 205.375,318.775 206.050,318.241 206.671 L 317.270 207.800 303.135 208.000 C 295.361 208.110,288.939 208.169,288.865 208.132 C 288.590 207.993,288.101 205.232,288.313 205.020 C 288.703 204.631,318.740 204.779,318.982 205.171 M207.154 225.176 C 207.540 225.382,209.463 225.761,211.428 226.018 C 213.393 226.275,215.284 226.736,215.631 227.043 C 215.979 227.349,216.520 227.600,216.834 227.600 C 217.888 227.600,221.484 230.179,221.974 231.286 C 222.738 233.013,221.540 233.974,220.374 232.569 C 215.297 226.451,190.092 226.498,183.578 232.637 C 182.218 233.919,181.600 233.852,181.600 232.422 C 181.600 231.122,185.389 227.600,186.788 227.600 C 187.181 227.600,187.710 227.350,187.963 227.044 C 188.217 226.739,189.877 226.276,191.652 226.016 C 193.428 225.757,195.267 225.388,195.740 225.198 C 196.910 224.726,206.280 224.708,207.154 225.176 M119.089 306.900 C 119.547 307.395,120.417 308.250,121.021 308.800 L 122.120 309.800 148.760 309.800 L 175.400 309.800 176.900 308.653 C 177.725 308.021,178.400 307.256,178.400 306.953 C 178.400 306.649,178.690 306.400,179.043 306.400 C 180.548 306.400,178.298 310.700,176.068 312.087 L 174.600 313.000 148.991 313.000 L 123.382 313.000 121.291 311.658 C 120.141 310.920,119.200 310.169,119.200 309.989 C 119.200 309.809,118.732 309.105,118.159 308.425 C 116.563 306.527,117.429 305.107,119.089 306.900 M225.484 308.800 C 225.599 309.240,225.915 309.600,226.185 309.600 C 226.456 309.600,227.083 309.952,227.579 310.381 C 228.994 311.609,230.410 311.668,255.000 311.520 C 277.923 311.381,278.225 311.369,280.315 310.490 C 281.478 310.000,282.726 309.600,283.089 309.600 C 283.452 309.600,284.156 309.217,284.654 308.749 C 285.152 308.282,285.824 308.001,286.149 308.125 C 287.791 308.755,284.330 312.575,281.724 313.009 C 280.886 313.148,279.403 313.518,278.429 313.831 C 276.980 314.296,272.379 314.400,253.167 314.400 L 229.676 314.400 228.005 313.508 C 225.300 312.065,222.815 308.000,224.637 308.000 C 224.988 308.000,225.369 308.360,225.484 308.800 " stroke="none" fill="#93b3dc" fill-rule="evenodd"></path><path id="path1" d="M197.953 86.950 C 196.937 87.437,195.838 88.098,195.509 88.418 C 195.180 88.738,194.244 89.540,193.428 90.200 C 192.612 90.860,191.498 91.805,190.952 92.300 C 190.406 92.795,189.788 93.200,189.579 93.200 C 189.371 93.200,189.200 93.375,189.200 93.590 C 189.200 93.804,188.562 94.569,187.783 95.290 C 187.003 96.010,184.310 98.625,181.798 101.100 C 179.285 103.575,177.043 105.600,176.815 105.600 C 176.587 105.600,176.400 105.766,176.400 105.969 C 176.400 106.434,174.057 108.800,173.596 108.800 C 173.408 108.800,173.143 109.151,173.006 109.580 C 172.870 110.008,172.417 110.467,172.000 110.600 C 171.583 110.733,171.130 111.192,170.994 111.620 C 170.857 112.049,170.593 112.400,170.406 112.400 C 170.219 112.400,163.204 119.195,154.817 127.500 C 146.430 135.805,137.100 145.008,134.084 147.950 C 131.068 150.893,124.804 157.013,120.164 161.550 C 115.524 166.088,107.730 173.670,102.843 178.400 C 84.082 196.560,82.786 197.939,82.081 200.491 C 81.469 202.706,82.150 202.795,99.756 202.798 C 113.719 202.800,114.954 202.855,115.443 203.500 C 115.878 204.072,115.977 212.567,115.987 250.098 C 116.000 294.331,116.028 296.080,116.771 298.298 C 117.194 299.564,117.668 301.230,117.822 302.000 C 117.977 302.770,118.530 303.909,119.052 304.531 C 119.573 305.153,120.000 305.793,120.000 305.954 C 120.000 306.114,120.815 306.821,121.812 307.523 L 123.623 308.800 149.016 308.800 C 173.913 308.800,174.421 308.784,175.093 308.000 C 175.470 307.560,176.098 307.200,176.489 307.200 C 176.880 307.200,177.200 306.955,177.200 306.656 C 177.200 306.357,177.650 305.449,178.200 304.638 L 179.200 303.164 179.202 268.082 L 179.203 233.000 180.312 231.329 C 181.739 229.179,183.414 227.637,185.078 226.942 C 185.805 226.638,186.400 226.223,186.400 226.019 C 186.400 225.816,187.249 225.522,188.287 225.366 C 189.325 225.210,190.900 224.753,191.787 224.350 C 194.210 223.250,208.665 223.247,211.485 224.347 C 212.538 224.757,214.265 225.220,215.323 225.375 C 216.381 225.529,217.338 225.893,217.449 226.183 C 217.560 226.473,218.179 226.816,218.825 226.945 C 219.535 227.087,220.874 228.084,222.216 229.470 L 224.434 231.759 224.379 268.292 C 224.326 303.209,224.357 304.870,225.062 305.865 C 225.468 306.437,226.007 307.264,226.261 307.701 C 228.129 310.924,277.409 311.502,282.400 308.359 C 285.357 306.498,285.404 306.439,286.308 303.518 L 287.211 300.600 287.069 254.400 C 286.991 228.990,286.791 207.551,286.626 206.758 C 285.986 203.682,286.398 203.600,302.432 203.600 C 316.299 203.600,316.360 203.596,317.386 202.700 C 318.576 201.660,318.323 199.733,316.811 198.324 C 316.365 197.909,315.997 197.441,315.994 197.284 C 315.990 197.128,315.180 196.101,314.194 195.003 C 313.207 193.904,312.400 192.869,312.400 192.703 C 312.400 192.536,312.236 192.400,312.035 192.400 C 311.523 192.400,307.200 188.125,307.200 187.617 C 307.200 187.388,307.034 187.200,306.831 187.200 C 306.507 187.200,298.400 179.299,298.400 178.983 C 298.400 178.697,295.907 176.400,295.596 176.400 C 295.408 176.400,295.143 176.049,295.006 175.620 C 294.870 175.192,294.417 174.733,294.000 174.600 C 293.583 174.467,293.130 174.008,292.994 173.580 C 292.857 173.151,292.574 172.800,292.364 172.800 C 291.899 172.800,287.600 168.412,287.600 167.938 C 287.600 167.752,287.445 167.600,287.255 167.600 C 287.065 167.600,274.462 155.225,259.249 140.100 C 244.035 124.975,230.162 111.250,228.419 109.600 C 226.676 107.950,225.239 106.388,225.225 106.129 C 225.211 105.870,224.943 105.600,224.628 105.529 C 224.314 105.458,222.374 103.780,220.317 101.800 C 203.224 85.345,202.414 84.808,197.953 86.950 M252.839 94.060 C 252.553 94.882,252.400 100.193,252.400 109.345 L 252.400 123.370 259.094 130.185 C 278.720 150.166,282.174 153.601,282.856 153.818 C 284.089 154.209,284.008 95.697,282.773 93.962 L 281.946 92.800 267.612 92.800 L 253.278 92.800 252.839 94.060 " stroke="none" fill="#fbfbfb" fill-rule="evenodd"></path><path id="path2" d="M81.598 204.733 C 80.876 204.975,81.183 205.929,82.254 206.771 C 83.551 207.791,112.834 208.094,114.068 207.100 C 114.934 206.402,115.290 205.206,114.693 204.996 C 114.111 204.792,82.180 204.538,81.598 204.733 M288.313 205.020 C 288.101 205.232,288.590 207.993,288.865 208.132 C 288.939 208.169,295.361 208.110,303.135 208.000 L 317.270 207.800 318.241 206.671 C 318.775 206.050,319.108 205.375,318.982 205.171 C 318.740 204.779,288.703 204.631,288.313 205.020 M195.740 225.198 C 195.267 225.388,193.428 225.757,191.652 226.016 C 189.877 226.276,188.217 226.739,187.963 227.044 C 187.710 227.350,187.181 227.600,186.788 227.600 C 185.389 227.600,181.600 231.122,181.600 232.422 C 181.600 233.852,182.218 233.919,183.578 232.637 C 190.092 226.498,215.297 226.451,220.374 232.569 C 221.540 233.974,222.738 233.013,221.974 231.286 C 221.484 230.179,217.888 227.600,216.834 227.600 C 216.520 227.600,215.979 227.349,215.631 227.043 C 215.284 226.736,213.393 226.275,211.428 226.018 C 209.463 225.761,207.540 225.382,207.154 225.176 C 206.280 224.708,196.910 224.726,195.740 225.198 M117.347 306.594 C 117.221 306.921,117.587 307.744,118.159 308.425 C 118.732 309.105,119.200 309.809,119.200 309.989 C 119.200 310.169,120.141 310.920,121.291 311.658 L 123.382 313.000 148.991 313.000 L 174.600 313.000 176.068 312.087 C 178.298 310.700,180.548 306.400,179.043 306.400 C 178.690 306.400,178.400 306.649,178.400 306.953 C 178.400 307.256,177.725 308.021,176.900 308.653 L 175.400 309.800 148.760 309.800 L 122.120 309.800 121.021 308.800 C 120.417 308.250,119.547 307.395,119.089 306.900 C 118.117 305.850,117.663 305.770,117.347 306.594 M224.000 308.721 C 224.000 309.905,226.216 312.553,228.005 313.508 L 229.676 314.400 253.167 314.400 C 272.379 314.400,276.980 314.296,278.429 313.831 C 279.403 313.518,280.886 313.148,281.724 313.009 C 284.330 312.575,287.791 308.755,286.149 308.125 C 285.824 308.001,285.152 308.282,284.654 308.749 C 284.156 309.217,283.452 309.600,283.089 309.600 C 282.726 309.600,281.478 310.000,280.315 310.490 C 278.225 311.369,277.923 311.381,255.000 311.520 C 230.410 311.668,228.994 311.609,227.579 310.381 C 227.083 309.952,226.456 309.600,226.185 309.600 C 225.915 309.600,225.599 309.240,225.484 308.800 C 225.224 307.804,224.000 307.739,224.000 308.721 " stroke="none" fill="#3d85dc" fill-rule="evenodd"></path><path id="path3" d="M197.584 85.616 C 197.135 86.065,196.370 86.609,195.884 86.826 C 194.606 87.396,192.255 89.159,191.881 89.827 C 191.705 90.142,191.393 90.400,191.189 90.400 C 190.985 90.400,188.023 93.190,184.606 96.600 C 181.190 100.010,178.228 102.800,178.024 102.800 C 177.821 102.800,177.543 103.151,177.406 103.580 C 177.270 104.008,176.828 104.464,176.423 104.593 C 176.018 104.721,175.594 105.181,175.481 105.613 C 175.367 106.046,175.000 106.400,174.664 106.400 C 174.329 106.400,173.946 106.741,173.814 107.157 C 173.682 107.573,173.219 108.006,172.787 108.119 C 172.354 108.233,172.000 108.600,172.000 108.936 C 172.000 109.271,171.649 109.657,171.220 109.794 C 170.792 109.930,170.336 110.372,170.207 110.777 C 170.079 111.182,169.619 111.606,169.187 111.719 C 168.754 111.833,168.400 112.212,168.400 112.563 C 168.400 112.913,168.189 113.200,167.931 113.200 C 167.384 113.200,163.200 117.388,163.200 117.936 C 163.200 118.140,162.827 118.404,162.370 118.524 C 161.914 118.643,161.443 119.114,161.324 119.570 C 161.204 120.027,160.864 120.400,160.567 120.400 C 160.271 120.400,159.842 120.748,159.614 121.173 C 159.387 121.598,158.841 122.060,158.400 122.200 C 157.960 122.340,157.600 122.608,157.600 122.796 C 157.600 123.242,155.242 125.600,154.796 125.600 C 154.608 125.600,154.340 125.960,154.200 126.400 C 154.060 126.840,153.806 127.200,153.634 127.200 C 153.182 127.200,150.400 129.969,150.400 130.419 C 150.400 130.629,150.224 130.800,150.008 130.800 C 149.793 130.800,147.048 133.317,143.908 136.394 C 140.769 139.471,134.080 145.996,129.045 150.894 C 124.010 155.792,115.852 163.805,110.915 168.700 C 105.979 173.595,101.773 177.600,101.570 177.600 C 101.366 177.600,101.200 177.874,101.200 178.210 C 101.200 178.545,100.750 178.991,100.200 179.200 C 99.650 179.409,99.200 179.843,99.200 180.163 C 99.200 180.484,98.840 180.860,98.400 181.000 C 97.960 181.140,97.600 181.516,97.600 181.837 C 97.600 182.157,97.150 182.591,96.600 182.800 C 96.050 183.009,95.600 183.455,95.600 183.790 C 95.600 184.126,95.326 184.400,94.991 184.400 C 94.657 184.400,94.178 184.850,93.927 185.400 C 93.677 185.950,93.312 186.400,93.117 186.400 C 92.720 186.400,83.200 195.862,83.200 196.257 C 83.200 196.395,82.750 196.925,82.200 197.435 C 81.650 197.945,81.200 198.720,81.200 199.157 C 81.200 199.595,81.021 200.063,80.802 200.199 C 79.134 201.230,80.526 203.597,82.800 203.597 C 83.130 203.597,82.815 203.240,82.100 202.804 C 80.580 201.878,80.644 202.142,81.409 199.976 C 82.164 197.836,81.415 198.676,91.902 188.200 C 100.538 179.573,104.257 175.920,123.209 157.446 C 139.905 141.171,158.648 122.819,167.991 113.600 C 185.851 95.976,189.440 92.525,192.600 89.935 C 197.937 85.560,200.838 84.426,203.200 85.789 C 203.750 86.106,204.560 86.534,205.000 86.740 C 206.447 87.416,218.091 98.242,229.323 109.351 C 231.675 111.678,233.600 113.484,233.600 113.365 C 233.600 112.730,232.694 111.600,232.186 111.600 C 231.864 111.600,231.600 111.326,231.600 110.991 C 231.600 110.657,231.150 110.178,230.600 109.927 C 230.050 109.677,229.600 109.340,229.600 109.178 C 229.600 108.714,227.323 106.400,226.866 106.400 C 226.640 106.400,226.340 106.040,226.200 105.600 C 226.060 105.160,225.802 104.800,225.625 104.800 C 225.449 104.800,222.446 101.998,218.952 98.573 C 215.459 95.148,211.295 91.238,209.700 89.885 C 208.105 88.532,206.800 87.284,206.800 87.112 C 206.800 86.940,206.556 86.800,206.258 86.800 C 205.961 86.800,205.231 86.350,204.638 85.800 C 203.174 84.444,198.869 84.331,197.584 85.616 M253.300 92.038 C 252.585 92.250,252.000 92.660,252.000 92.949 C 252.000 93.239,251.640 93.802,251.200 94.200 C 250.329 94.988,249.928 121.107,250.754 123.279 C 251.231 124.534,282.980 156.400,283.753 156.400 C 285.074 156.400,285.196 153.715,285.198 124.487 C 285.200 93.989,285.195 93.889,283.401 92.400 C 282.537 91.683,255.593 91.359,253.300 92.038 M283.391 93.400 L 284.371 94.600 284.379 124.600 C 284.388 156.345,284.396 156.221,282.487 154.862 C 280.469 153.425,251.817 123.986,251.540 123.065 C 250.864 120.818,251.180 95.300,251.900 94.024 C 252.958 92.147,253.888 92.042,268.706 92.124 L 282.411 92.200 283.391 93.400 M234.638 114.459 C 235.057 114.932,239.042 118.937,243.492 123.359 C 306.597 186.059,316.808 196.454,318.483 199.696 L 319.566 201.792 318.508 202.896 C 317.926 203.503,317.630 204.000,317.850 204.000 C 318.941 204.000,320.548 201.628,319.946 200.907 C 319.621 200.518,319.124 199.660,318.841 199.000 C 318.341 197.833,317.973 197.354,316.100 195.432 C 315.605 194.924,315.200 194.316,315.200 194.081 C 315.200 193.846,314.849 193.543,314.420 193.406 C 313.992 193.270,313.536 192.828,313.407 192.423 C 313.279 192.018,312.819 191.594,312.387 191.481 C 311.954 191.367,311.600 190.988,311.600 190.637 C 311.600 190.287,311.438 190.000,311.240 190.000 C 310.787 190.000,308.000 187.236,308.000 186.787 C 308.000 186.604,307.640 186.340,307.200 186.200 C 306.760 186.060,306.400 185.700,306.400 185.400 C 306.400 185.100,306.049 184.743,305.620 184.606 C 305.192 184.470,304.733 184.017,304.600 183.600 C 304.467 183.183,304.008 182.730,303.580 182.594 C 303.151 182.457,302.800 182.083,302.800 181.760 C 302.800 181.438,302.521 181.068,302.180 180.937 C 301.411 180.642,299.200 178.460,299.200 177.996 C 299.200 177.808,298.849 177.543,298.420 177.406 C 297.992 177.270,297.530 176.808,297.394 176.380 C 297.257 175.951,296.884 175.600,296.563 175.600 C 296.243 175.600,295.809 175.150,295.600 174.600 C 295.391 174.050,294.957 173.600,294.637 173.600 C 294.316 173.600,293.940 173.240,293.800 172.800 C 293.660 172.360,293.300 172.000,293.000 172.000 C 292.700 172.000,292.343 171.649,292.206 171.220 C 292.070 170.792,291.608 170.330,291.180 170.194 C 290.751 170.057,290.400 169.700,290.400 169.400 C 290.400 169.100,290.049 168.743,289.620 168.606 C 289.192 168.470,288.733 168.017,288.600 167.600 C 288.467 167.183,288.017 166.733,287.600 166.600 C 287.183 166.467,286.730 166.008,286.594 165.580 C 286.457 165.151,286.100 164.800,285.800 164.800 C 285.500 164.800,285.143 164.449,285.006 164.020 C 284.870 163.592,284.408 163.130,283.980 162.994 C 283.551 162.857,283.200 162.500,283.200 162.200 C 283.200 161.900,282.849 161.543,282.420 161.406 C 281.992 161.270,281.536 160.828,281.407 160.423 C 281.279 160.018,280.819 159.594,280.387 159.481 C 279.954 159.367,279.600 158.988,279.600 158.637 C 279.600 158.287,279.438 158.000,279.240 158.000 C 278.787 158.000,276.000 155.236,276.000 154.787 C 276.000 154.604,275.640 154.340,275.200 154.200 C 274.760 154.060,274.400 153.700,274.400 153.400 C 274.400 153.100,274.049 152.743,273.620 152.606 C 273.192 152.470,272.733 152.017,272.600 151.600 C 272.467 151.183,272.017 150.733,271.600 150.600 C 271.183 150.467,270.730 150.008,270.594 149.580 C 270.457 149.151,270.100 148.800,269.800 148.800 C 269.500 148.800,269.143 148.449,269.006 148.020 C 268.870 147.592,268.408 147.130,267.980 146.994 C 267.551 146.857,267.200 146.500,267.200 146.200 C 267.200 145.900,266.849 145.543,266.420 145.406 C 265.992 145.270,265.530 144.808,265.394 144.380 C 265.257 143.951,264.987 143.600,264.793 143.600 C 264.301 143.600,256.400 135.692,256.400 135.200 C 256.400 134.980,256.223 134.800,256.007 134.800 C 255.791 134.800,253.998 133.180,252.022 131.200 C 250.045 129.220,248.242 127.600,248.014 127.600 C 247.786 127.600,247.600 127.425,247.600 127.212 C 247.600 126.672,241.371 120.400,240.836 120.400 C 240.596 120.400,240.400 120.221,240.400 120.003 C 240.400 119.558,234.588 113.600,234.154 113.600 C 234.001 113.600,234.219 113.987,234.638 114.459 M99.115 203.991 C 112.492 204.169,114.886 204.289,115.209 204.800 C 115.445 205.175,115.590 205.218,115.594 204.914 C 115.609 203.727,113.869 203.601,98.726 203.691 L 83.400 203.782 99.115 203.991 M295.926 204.300 C 299.955 204.365,306.435 204.365,310.326 204.299 C 314.217 204.234,310.920 204.180,303.000 204.181 C 295.080 204.181,291.897 204.234,295.926 204.300 M287.905 254.669 C 288.008 301.005,287.999 301.688,287.205 303.482 C 286.173 305.816,286.191 305.910,287.400 304.473 L 288.400 303.285 288.394 255.942 C 288.391 229.904,288.256 208.392,288.094 208.138 C 287.932 207.884,287.847 228.823,287.905 254.669 M114.993 250.600 C 114.993 273.920,115.041 283.519,115.100 271.931 C 115.159 260.342,115.159 241.262,115.100 229.531 C 115.041 217.799,114.993 227.280,114.993 250.600 M196.707 224.290 C 197.426 224.379,198.506 224.377,199.107 224.286 C 199.708 224.195,199.120 224.122,197.800 224.124 C 196.480 224.126,195.988 224.201,196.707 224.290 M203.491 224.289 C 204.201 224.377,205.461 224.379,206.291 224.292 C 207.121 224.205,206.540 224.133,205.000 224.131 C 203.460 224.129,202.781 224.200,203.491 224.289 M192.000 225.000 C 190.133 225.719,190.939 225.733,193.200 225.021 C 194.190 224.709,194.640 224.455,194.200 224.457 C 193.760 224.459,192.770 224.703,192.000 225.000 M209.946 225.016 C 210.686 225.337,211.586 225.592,211.946 225.582 C 212.306 225.573,211.880 225.305,211.000 224.988 C 208.927 224.242,208.206 224.260,209.946 225.016 M186.200 226.827 C 185.540 227.250,185.180 227.596,185.400 227.595 C 185.620 227.595,186.340 227.237,187.000 226.800 C 187.660 226.363,188.020 226.017,187.800 226.032 C 187.580 226.047,186.860 226.404,186.200 226.827 M216.600 226.800 C 217.260 227.237,217.980 227.595,218.200 227.596 C 218.420 227.596,218.011 227.238,217.290 226.799 C 215.592 225.763,215.036 225.764,216.600 226.800 M182.800 229.179 C 181.811 230.034,181.091 230.798,181.200 230.876 C 181.310 230.953,182.210 230.251,183.200 229.315 C 185.449 227.187,185.202 227.103,182.800 229.179 M223.442 233.028 C 223.575 233.742,223.411 234.877,223.050 235.742 C 222.055 238.124,222.025 302.613,223.019 303.555 C 223.654 304.157,223.678 304.120,223.382 303.000 C 223.208 302.340,223.109 301.440,223.164 301.000 C 223.430 298.832,223.760 232.918,223.507 232.400 C 223.346 232.070,223.317 232.352,223.442 233.028 M180.181 232.831 C 180.034 233.068,179.936 248.413,179.963 266.931 C 180.010 299.172,179.845 304.785,178.842 305.119 C 178.594 305.202,178.186 305.659,177.936 306.135 C 177.564 306.844,177.683 306.802,178.595 305.901 C 180.350 304.167,180.387 303.336,180.350 267.330 C 180.331 248.592,180.435 233.067,180.581 232.830 C 180.727 232.594,180.757 232.400,180.647 232.400 C 180.537 232.400,180.327 232.594,180.181 232.831 M115.263 296.700 C 115.212 299.057,115.340 299.740,115.950 300.350 C 116.363 300.762,116.798 301.348,116.918 301.650 C 117.081 302.060,117.145 302.069,117.168 301.686 C 117.186 301.403,116.885 300.692,116.500 300.106 C 116.112 299.516,115.694 297.870,115.563 296.420 L 115.326 293.800 115.263 296.700 M117.246 303.011 C 117.193 303.953,118.240 305.600,118.892 305.600 C 119.138 305.600,118.966 305.195,118.510 304.700 C 118.053 304.205,117.593 303.440,117.486 303.000 C 117.295 302.209,117.292 302.209,117.246 303.011 M223.825 305.337 C 223.940 305.963,224.689 307.133,225.489 307.937 L 226.944 309.400 226.045 308.100 C 225.550 307.385,225.004 306.800,224.831 306.800 C 224.657 306.800,224.313 306.215,224.065 305.500 C 223.667 304.350,223.639 304.331,223.825 305.337 M121.200 307.957 C 121.200 308.464,122.777 309.356,123.101 309.032 C 123.229 308.905,123.136 308.800,122.895 308.800 C 122.654 308.800,122.174 308.517,121.829 308.171 C 121.483 307.826,121.200 307.729,121.200 307.957 M136.300 309.500 C 143.175 309.561,154.425 309.561,161.300 309.500 C 168.175 309.438,162.550 309.388,148.800 309.388 C 135.050 309.388,129.425 309.438,136.300 309.500 M228.576 310.178 C 229.004 310.520,229.634 310.786,229.976 310.768 C 230.515 310.741,230.518 310.707,230.000 310.514 C 229.670 310.392,229.040 310.126,228.600 309.924 C 227.813 309.562,227.812 309.566,228.576 310.178 M277.800 310.000 C 277.296 310.217,277.222 310.344,277.600 310.344 C 277.930 310.344,278.560 310.189,279.000 310.000 C 279.504 309.783,279.578 309.656,279.200 309.656 C 278.870 309.656,278.240 309.811,277.800 310.000 M274.105 310.687 C 274.714 310.779,275.614 310.777,276.105 310.682 C 276.597 310.587,276.100 310.511,275.000 310.514 C 273.900 310.517,273.497 310.595,274.105 310.687 " stroke="none" fill="#acc4e4" fill-rule="evenodd"></path><path id="path4" d="M197.797 86.256 C 193.711 88.417,190.871 91.022,167.991 113.600 C 158.648 122.819,139.905 141.171,123.209 157.446 C 104.257 175.920,100.538 179.573,91.902 188.200 C 81.415 198.676,82.164 197.836,81.409 199.976 C 80.142 203.565,80.289 203.595,98.800 203.605 C 107.270 203.609,114.431 203.759,114.714 203.938 C 115.126 204.200,115.244 213.497,115.314 251.232 L 115.400 298.200 116.257 299.651 C 116.729 300.448,117.247 301.708,117.409 302.451 C 117.866 304.544,120.333 307.479,122.699 308.746 C 123.739 309.302,173.437 309.396,174.874 308.844 C 175.746 308.510,176.780 307.584,178.571 305.539 C 179.916 304.002,180.013 301.307,179.963 266.929 C 179.919 236.597,179.978 233.167,180.557 232.340 C 180.911 231.835,181.200 231.214,181.200 230.959 C 181.200 229.813,187.684 225.600,189.447 225.600 C 189.916 225.600,191.087 225.293,192.050 224.919 C 194.651 223.906,208.160 223.893,210.914 224.900 C 211.967 225.285,213.317 225.606,213.914 225.613 C 216.209 225.639,221.482 228.867,222.852 231.085 C 223.722 232.492,224.041 294.899,223.201 299.200 C 222.409 303.249,225.012 308.248,228.809 309.970 C 230.737 310.845,268.492 311.224,274.800 310.433 C 282.902 309.416,285.096 308.295,286.893 304.256 L 287.986 301.800 287.962 253.243 C 287.943 213.311,288.033 204.625,288.469 204.349 C 288.761 204.164,295.401 204.009,303.225 204.006 L 317.450 204.000 318.508 202.896 L 319.566 201.792 318.483 199.696 C 317.887 198.543,316.770 196.857,316.000 195.949 C 313.726 193.267,230.151 109.947,221.381 101.619 C 208.331 89.226,206.225 87.313,205.000 86.740 C 204.560 86.534,203.750 86.106,203.200 85.789 C 201.712 84.930,200.029 85.075,197.797 86.256 M203.879 87.009 C 205.626 87.927,209.903 91.775,220.317 101.800 C 222.374 103.780,224.314 105.458,224.628 105.529 C 224.943 105.600,225.211 105.870,225.225 106.129 C 225.239 106.388,226.676 107.950,228.419 109.600 C 230.162 111.250,244.035 124.975,259.249 140.100 C 274.462 155.225,287.065 167.600,287.255 167.600 C 287.445 167.600,287.600 167.752,287.600 167.938 C 287.600 168.412,291.899 172.800,292.364 172.800 C 292.574 172.800,292.857 173.151,292.994 173.580 C 293.130 174.008,293.583 174.467,294.000 174.600 C 294.417 174.733,294.870 175.192,295.006 175.620 C 295.143 176.049,295.408 176.400,295.596 176.400 C 295.907 176.400,298.400 178.697,298.400 178.983 C 298.400 179.299,306.507 187.200,306.831 187.200 C 307.034 187.200,307.200 187.388,307.200 187.617 C 307.200 188.125,311.523 192.400,312.035 192.400 C 312.236 192.400,312.400 192.536,312.400 192.703 C 312.400 192.869,313.207 193.904,314.194 195.003 C 315.180 196.101,315.990 197.128,315.994 197.284 C 315.997 197.441,316.365 197.909,316.811 198.324 C 318.323 199.733,318.576 201.660,317.386 202.700 C 316.360 203.596,316.299 203.600,302.432 203.600 C 286.398 203.600,285.986 203.682,286.626 206.758 C 286.791 207.551,286.991 228.990,287.069 254.400 L 287.211 300.600 286.308 303.518 C 285.404 306.439,285.357 306.498,282.400 308.359 C 277.409 311.502,228.129 310.924,226.261 307.701 C 226.007 307.264,225.468 306.437,225.062 305.865 C 224.357 304.870,224.326 303.209,224.379 268.292 L 224.434 231.759 222.216 229.470 C 220.874 228.084,219.535 227.087,218.825 226.945 C 218.179 226.816,217.560 226.473,217.449 226.183 C 217.338 225.893,216.381 225.529,215.323 225.375 C 214.265 225.220,212.538 224.757,211.485 224.347 C 208.665 223.247,194.210 223.250,191.787 224.350 C 190.900 224.753,189.325 225.210,188.287 225.366 C 187.249 225.522,186.400 225.816,186.400 226.019 C 186.400 226.223,185.805 226.638,185.078 226.942 C 183.414 227.637,181.739 229.179,180.312 231.329 L 179.203 233.000 179.202 268.082 L 179.200 303.164 178.200 304.638 C 177.650 305.449,177.200 306.357,177.200 306.656 C 177.200 306.955,176.880 307.200,176.489 307.200 C 176.098 307.200,175.470 307.560,175.093 308.000 C 174.421 308.784,173.913 308.800,149.016 308.800 L 123.623 308.800 121.812 307.523 C 120.815 306.821,120.000 306.114,120.000 305.954 C 120.000 305.793,119.573 305.153,119.052 304.531 C 118.530 303.909,117.977 302.770,117.822 302.000 C 117.668 301.230,117.194 299.564,116.771 298.298 C 116.028 296.080,116.000 294.331,115.987 250.098 C 115.977 212.567,115.878 204.072,115.443 203.500 C 114.954 202.855,113.719 202.800,99.756 202.798 C 82.150 202.795,81.469 202.706,82.081 200.491 C 82.786 197.939,84.082 196.560,102.843 178.400 C 107.730 173.670,115.524 166.088,120.164 161.550 C 124.804 157.013,131.068 150.893,134.084 147.950 C 137.100 145.008,146.430 135.805,154.817 127.500 C 163.204 119.195,170.219 112.400,170.406 112.400 C 170.593 112.400,170.857 112.049,170.994 111.620 C 171.130 111.192,171.583 110.733,172.000 110.600 C 172.417 110.467,172.870 110.008,173.006 109.580 C 173.143 109.151,173.408 108.800,173.596 108.800 C 174.057 108.800,176.400 106.434,176.400 105.969 C 176.400 105.766,176.587 105.600,176.815 105.600 C 177.043 105.600,179.285 103.575,181.798 101.100 C 184.310 98.625,187.003 96.010,187.783 95.290 C 188.562 94.569,189.200 93.804,189.200 93.590 C 189.200 93.375,189.371 93.200,189.579 93.200 C 189.788 93.200,190.406 92.795,190.952 92.300 C 191.498 91.805,192.612 90.860,193.428 90.200 C 194.244 89.540,195.180 88.738,195.509 88.418 C 197.826 86.162,201.189 85.596,203.879 87.009 M253.800 92.415 C 251.287 93.184,251.196 93.768,251.240 108.732 C 251.262 116.140,251.397 122.589,251.540 123.065 C 251.817 123.986,280.469 153.425,282.487 154.862 C 284.396 156.221,284.388 156.345,284.379 124.600 L 284.371 94.600 283.391 93.400 L 282.411 92.200 268.706 92.124 C 261.168 92.082,254.460 92.213,253.800 92.415 M282.773 93.962 C 284.008 95.697,284.089 154.209,282.856 153.818 C 282.174 153.601,278.720 150.166,259.094 130.185 L 252.400 123.370 252.400 109.345 C 252.400 100.193,252.553 94.882,252.839 94.060 L 253.278 92.800 267.612 92.800 L 281.946 92.800 282.773 93.962 " stroke="none" fill="#c0d4ef" fill-rule="evenodd"></path></g></svg>